<mxfile host="app.diagrams.net" modified="2023-07-23T02:13:56.070Z" agent="Mozilla/5.0 (Windows NT 10.0; Win64; x64) AppleWebKit/537.36 (KHTML, like Gecko) Chrome/114.0.0.0 Safari/537.36" version="21.5.2" etag="_xz0woJWWWZrtJ4VL3m8" type="github">
  <diagram name="PÃ¡gina-1" id="VHA7gThkX2af2tDT9m_2">
    <mxGraphModel>
      <root>
        <mxCell id="0" />
        <mxCell id="1" parent="0" />
      </root>
    </mxGraphModel>
  </diagram>
</mxfile>
